# xmcd
#
# Track frame offsets:
#	150
#	12785
#	28577
#	38307
#	61955
#	75995
#	95632
#	103127
#	115127
#	132367
#	148700
#	160775
#	178370
#	200102
#	221762
#	236537
#	252490
#	269085
#	291520
#	310532
#	329927
#
# Disc length: 4577 seconds
#
# Revision: 2
# Processed by: cddbd v1.5.1PL0 Copyright (c) Steve Scherf et al.
# Submitted via: CDmax 2.0
#
DISCID=3f11df15
DTITLE=Various Artist - Folk, Gospel, and Blues: Will the Circle Be Unbroke
DTITLE=n [CD2/2)
DYEAR=1999
DGENRE=Blues
TTITLE0=Bob Dylan - Blowin' in the Wind
TTITLE1=The Clancy Brothers and Tony Makem - The Patriot Game
TTITLE2=The New Christey Minstrels (featuring Barry McGuire) - Green, Green
TTITLE3=Pete Seeger - We Shall Overcome
TTITLE4=Simon and Garfunkel - The Sound of Silence
TTITLE5=Son House - Death Letter
TTITLE6=Malvina Reynolds - Little Boxes
TTITLE7=The Staple Singers - Will the Circle Be Unbroken
TTITLE8=Leaonard Cohen - Suzanne
TTITLE9=Taj Mahal - Going Up to the Country, Paint My Mailbox Blue
TTITLE10=Tom Rush - These Days
TTITLE11=Johnny Winter - Mean Mistreater
TTITLE12=Willie Dixon - I'm Your Hoochie Coochie Man
TTITLE13=Eric Andersen - Blue River
TTITLE14=Dan Fogelberg - Longer
TTITLE15=Steve Forbert - Romeo's Tune
TTITLE16=Stevie Ray Vaughan and Double Trouble - Pride and Joy
TTITLE17=Shawn Colvin - Steady On
TTITLE18=Indigo Girls - Galileo
TTITLE19=Shirley Caesar (featuring John P. Kee) - Stand Still
TTITLE20=Keb' Mo' - Every Morning
EXTD=Sony Music 100 Years/Soundtrack for a Century
EXTT0=
EXTT1=
EXTT2=
EXTT3=
EXTT4=
EXTT5=
EXTT6=
EXTT7=
EXTT8=
EXTT9=
EXTT10=
EXTT11=
EXTT12=
EXTT13=
EXTT14=
EXTT15=
EXTT16=
EXTT17=
EXTT18=
EXTT19=
EXTT20=
PLAYORDER=
